# Blender 4.4.1
# www.blender.org
mtllib axis.mtl
o axis
v 0.000000 0.000000 -0.900903
v -0.060000 -0.060000 -0.588289
v -0.060000 0.060000 -0.588289
v 0.060000 0.060000 -0.588289
v 0.060000 -0.060000 -0.588289
v -0.030000 0.030000 -0.588289
v -0.030000 -0.030000 -0.588289
v 0.030000 0.030000 -0.588289
v 0.030000 -0.030000 -0.588289
v 0.000000 0.000000 0.900903
v -0.060000 -0.060000 0.588289
v -0.060000 0.060000 0.588289
v 0.060000 0.060000 0.588289
v 0.060000 -0.060000 0.588289
v -0.030000 0.030000 0.588289
v -0.030000 -0.030000 0.588289
v 0.030000 0.030000 0.588289
v 0.030000 -0.030000 0.588289
v -0.900903 0.000000 0.000000
v -0.588289 -0.060000 0.060000
v -0.588289 0.060000 0.060000
v -0.588289 0.060000 -0.060000
v -0.588289 -0.060000 -0.060000
v -0.588289 0.030000 0.030000
v -0.588289 -0.030000 0.030000
v -0.588289 0.030000 -0.030000
v -0.588289 -0.030000 -0.030000
v 0.900903 0.000000 -0.000000
v 0.588289 -0.060000 0.060000
v 0.588289 0.060000 0.060000
v 0.588289 0.060000 -0.060000
v 0.588289 -0.060000 -0.060000
v 0.588289 0.030000 0.030000
v 0.588289 -0.030000 0.030000
v 0.588289 0.030000 -0.030000
v 0.588289 -0.030000 -0.030000
v 0.030000 0.030000 -0.030000
v 0.030000 -0.030000 0.030109
v -0.030000 0.030000 0.030109
v 0.030000 0.030000 0.030109
v -0.030000 -0.030000 0.030055
v 0.030000 -0.030000 -0.030000
v 0.030000 0.030000 0.030000
v 0.030000 -0.030000 0.030000
v -0.030000 -0.030000 -0.030000
v -0.030000 0.030000 0.030000
v -0.030000 0.030000 -0.030000
vn -0.0157 -0.9868 0.1613
vn 0.0157 -0.9868 0.1613
vn 0.0002 -0.9869 0.1616
vn -0.9868 0.0157 0.1613
vn -0.9868 -0.0157 0.1613
vn -0.9869 -0.0002 0.1616
vn 0.0157 0.9868 0.1613
vn -0.0157 0.9868 0.1613
vn -0.0002 0.9869 0.1616
vn -0.0000 -0.0000 1.0000
vn 0.9868 -0.0157 0.1613
vn 0.9868 0.0157 0.1613
vn 0.9869 0.0002 0.1616
vn -0.0000 1.0000 -0.0000
vn -0.0000 -1.0000 -0.0000
vn -1.0000 -0.0000 -0.0000
vn -0.0157 -0.9868 -0.1612
vn -0.0001 -0.9869 -0.1616
vn 0.0157 -0.9868 -0.1612
vn -0.9868 0.0157 -0.1612
vn -0.9869 0.0001 -0.1616
vn -0.9868 -0.0157 -0.1612
vn 0.0157 0.9868 -0.1612
vn 0.0001 0.9869 -0.1616
vn -0.0157 0.9868 -0.1612
vn -0.0000 -0.0000 -1.0000
vn 0.9868 -0.0157 -0.1612
vn 0.9869 -0.0001 -0.1616
vn 0.9868 0.0157 -0.1612
vn 0.1613 -0.9868 0.0157
vn 0.1613 -0.9868 -0.0157
vn 0.1616 -0.9869 -0.0002
vn 0.1613 0.0157 0.9868
vn 0.1613 -0.0157 0.9868
vn 0.1616 -0.0002 0.9869
vn 0.1613 0.9868 -0.0157
vn 0.1613 0.9868 0.0157
vn 0.1616 0.9869 0.0002
vn 1.0000 -0.0000 -0.0000
vn 0.1613 -0.0157 -0.9868
vn 0.1613 0.0157 -0.9868
vn 0.1616 0.0002 -0.9869
vn -0.1612 -0.9868 0.0157
vn -0.1616 -0.9869 0.0001
vn -0.1612 -0.9868 -0.0157
vn -0.1612 0.0157 0.9868
vn -0.1616 0.0001 0.9869
vn -0.1612 -0.0157 0.9868
vn -0.1612 0.9868 -0.0157
vn -0.1616 0.9869 -0.0001
vn -0.1612 0.9868 0.0157
vn -0.1612 -0.0157 -0.9868
vn -0.1616 -0.0001 -0.9869
vn -0.1612 0.0157 -0.9868
vt 0.364500 0.476625
vt 0.661847 0.773973
vt 0.661847 0.773973
vt 0.661847 0.773973
vt 0.661847 0.773973
vt 0.686313 0.832313
vt 0.654619 0.801015
s 0
usemtl Material
f 5/1/1 2/1/2 1/1/3
f 2/1/4 3/1/5 1/1/6
f 3/1/7 4/1/8 1/1/9
f 8/1/10 3/1/10 6/1/10
f 7/1/10 5/1/10 9/1/10
f 6/1/10 2/1/10 7/1/10
f 4/1/11 5/1/12 1/1/13
f 37/1/14 6/1/14 47/1/14
f 9/1/10 4/1/10 8/1/10
f 45/1/15 9/1/15 42/1/15
f 47/1/16 7/1/16 45/1/16
f 14/1/17 10/1/18 11/1/19
f 11/1/20 10/1/21 12/1/22
f 12/1/23 10/1/24 13/1/25
f 12/1/26 17/1/26 15/1/26
f 14/1/26 16/1/26 18/1/26
f 11/1/26 15/1/26 16/1/26
f 13/1/27 10/1/28 14/1/29
f 15/1/14 40/1/14 39/1/14
f 13/1/26 18/1/26 17/1/26
f 16/1/16 39/1/16 41/1/16
f 23/2/30 20/2/31 19/2/32
f 20/2/33 21/2/34 19/2/35
f 21/2/36 22/2/37 19/2/38
f 26/2/39 21/2/39 24/2/39
f 25/2/39 23/2/39 27/2/39
f 24/2/39 20/2/39 25/2/39
f 22/2/40 23/2/41 19/2/42
f 47/2/14 24/2/14 46/3/14
f 27/2/39 22/2/39 26/2/39
f 45/2/15 25/2/15 27/2/15
f 46/3/10 25/2/10 41/2/10
f 32/2/43 28/2/44 29/2/45
f 29/2/46 28/2/47 30/2/48
f 30/2/49 28/2/50 31/2/51
f 30/2/16 35/2/16 33/2/16
f 32/2/16 34/2/16 36/2/16
f 29/2/16 33/2/16 34/2/16
f 31/2/52 28/2/53 32/2/54
f 33/2/14 37/2/14 43/2/14
f 31/2/16 36/2/16 35/2/16
f 36/2/15 44/4/15 42/5/15
f 34/2/10 43/2/10 44/4/10
f 8/1/39 42/1/39 9/1/39
f 38/1/39 17/1/39 18/1/39
f 38/1/15 16/1/15 41/1/15
f 42/5/26 35/2/26 36/2/26
f 26/2/26 45/2/26 27/2/26
f 44/6/15 45/6/15 42/6/15
f 46/7/14 43/7/14 37/7/14
f 8/1/10 4/1/10 3/1/10
f 7/1/10 2/1/10 5/1/10
f 6/1/10 3/1/10 2/1/10
f 37/1/14 8/1/14 6/1/14
f 9/1/10 5/1/10 4/1/10
f 45/1/15 7/1/15 9/1/15
f 47/1/16 6/1/16 7/1/16
f 12/1/26 13/1/26 17/1/26
f 14/1/26 11/1/26 16/1/26
f 11/1/26 12/1/26 15/1/26
f 15/1/14 17/1/14 40/1/14
f 13/1/26 14/1/26 18/1/26
f 16/1/16 15/1/16 39/1/16
f 26/2/39 22/2/39 21/2/39
f 25/2/39 20/2/39 23/2/39
f 24/2/39 21/2/39 20/2/39
f 47/2/14 26/2/14 24/2/14
f 27/2/39 23/2/39 22/2/39
f 45/2/15 41/2/15 25/2/15
f 46/3/10 24/2/10 25/2/10
f 30/2/16 31/2/16 35/2/16
f 32/2/16 29/2/16 34/2/16
f 29/2/16 30/2/16 33/2/16
f 33/2/14 35/2/14 37/2/14
f 31/2/16 32/2/16 36/2/16
f 36/2/15 34/2/15 44/4/15
f 34/2/10 33/2/10 43/2/10
f 8/1/39 37/1/39 42/1/39
f 38/1/39 40/1/39 17/1/39
f 38/1/15 18/1/15 16/1/15
f 42/5/26 37/2/26 35/2/26
f 26/2/26 47/2/26 45/2/26
f 44/6/15 41/6/15 45/6/15
f 37/7/14 47/7/14 46/7/14
f 46/7/14 40/7/14 43/7/14
